<svg xmlns="http://www.w3.org/2000/svg"
  viewBox="-7.000 -145.594 744.194 153.594"
  role="img"
  aria-labelledby="title">
  <title id="title">WEDDING</title>
  <path d="M139.406,-136.406 C126.812,-136.406 120.812,-129.188 117.594,-118.594 L109.812,-85.812 L98.188,-118.594 C95.406,-128.000 92.000,-136.406 80.000,-136.406 C67.594,-136.406 63.594,-127.406 61.000,-118.594 L49.594,-85.812 L41.812,-118.594 C38.594,-129.188 32.406,-136.406 20.000,-136.406 C6.594,-136.406 1.000,-125.000 1.000,-114.000 C1.000,-107.594 2.000,-100.594 4.000,-94.812 L26.000,-21.406 C28.594,-13.812 33.406,-0.000 48.594,-0.000 C59.406,-0.000 66.406,-6.594 70.406,-21.406 L78.594,-51.188 L78.812,-51.188 L86.000,-21.188 C88.000,-11.000 95.188,-0.000 108.594,-0.000 C122.812,-0.000 127.000,-12.188 130.406,-21.406 L154.594,-94.812 C156.594,-100.812 158.594,-107.812 158.594,-114.000 C158.594,-125.000 152.594,-136.406 139.406,-136.406 L139.406,-136.406 Z M29.000,-112.406 C27.812,-115.812 27.812,-117.188 26.188,-119.406 C24.594,-121.812 23.594,-122.188 19.406,-123.000 C16.406,-123.406 15.812,-126.188 16.594,-127.812 C17.812,-129.812 20.406,-129.406 21.594,-129.188 C32.188,-127.594 34.406,-118.812 35.406,-114.000 C36.406,-108.594 30.000,-108.000 29.000,-112.406 L29.000,-112.406 Z M49.812,-13.812 C49.188,-12.000 47.812,-11.188 45.594,-11.188 C42.406,-11.188 40.812,-12.812 40.812,-16.188 C40.812,-17.000 41.000,-18.000 41.406,-18.812 C42.000,-20.406 43.406,-21.188 45.594,-21.188 C48.812,-21.188 50.406,-19.406 50.406,-16.188 C50.406,-15.406 50.188,-14.594 49.812,-13.812 Z M151.000,-112.406 C151.000,-110.000 149.406,-108.594 147.406,-108.594 C145.812,-108.594 144.406,-109.406 144.406,-112.406 C144.406,-115.000 144.406,-117.000 142.812,-119.188 C141.594,-120.406 139.812,-121.594 136.406,-122.188 C133.406,-122.594 132.594,-125.000 133.188,-126.594 C134.000,-128.594 136.000,-128.812 137.406,-128.812 C140.594,-128.812 144.812,-127.594 148.000,-124.188 C151.188,-120.406 151.000,-116.406 151.000,-112.406 L151.000,-112.406 Z M258.206,-41.188 C255.800,-47.812 249.394,-54.000 239.612,-54.000 C229.612,-53.812 224.206,-47.188 218.612,-43.594 C215.394,-41.406 212.800,-40.594 208.800,-40.594 C204.987,-40.594 201.206,-42.594 201.206,-48.000 C201.206,-55.406 207.612,-56.188 217.206,-57.406 C229.394,-58.594 231.800,-64.406 231.987,-70.594 C232.394,-80.406 226.800,-84.000 219.206,-84.000 C219.206,-84.000 218.987,-84.000 218.987,-84.000 C215.206,-84.188 206.612,-83.594 206.206,-89.812 C205.987,-94.188 209.987,-96.000 212.987,-96.000 C216.612,-96.000 219.800,-94.594 223.206,-93.188 C226.612,-91.812 230.206,-90.406 234.206,-90.406 C244.987,-90.406 251.612,-97.594 251.612,-109.188 C251.612,-127.188 227.394,-134.812 214.394,-134.812 C186.394,-134.812 168.206,-120.000 168.206,-97.406 C168.206,-89.188 169.800,-81.000 178.987,-73.188 C166.612,-66.000 160.612,-56.188 160.987,-40.594 C161.612,-11.812 186.394,-0.000 205.800,-0.000 C216.987,-0.000 229.612,-2.188 238.394,-7.594 C247.206,-13.000 250.987,-16.000 255.800,-22.594 C259.612,-27.812 260.394,-35.188 258.206,-41.188 Z M220.394,-124.188 C221.206,-125.812 223.612,-126.594 226.206,-125.812 C227.394,-125.406 230.987,-124.406 233.987,-122.406 C238.987,-119.188 240.800,-116.812 241.612,-116.000 C243.800,-113.406 243.612,-111.188 241.800,-109.812 C240.800,-109.188 238.394,-108.594 236.612,-111.406 C235.800,-112.406 234.206,-114.188 230.394,-116.594 C226.612,-119.000 224.800,-119.188 223.612,-119.594 C219.987,-121.000 219.987,-123.000 220.394,-124.188 Z M238.987,-36.188 C236.394,-36.188 234.394,-38.406 234.394,-41.000 C234.394,-43.406 236.612,-45.594 239.206,-45.594 C241.800,-45.594 243.800,-43.406 243.800,-40.812 C243.800,-38.188 241.612,-36.000 238.987,-36.188 Z M299.787,-134.812 L283.006,-134.812 L280.194,-134.812 C269.006,-134.812 261.600,-127.000 261.600,-114.812 L261.600,-20.000 C261.600,-7.594 269.006,-0.000 280.194,-0.000 L283.006,-0.000 L300.600,-0.000 C335.412,-0.000 360.194,-22.188 360.194,-67.406 C360.194,-112.406 334.194,-134.812 299.787,-134.812 Z M300.194,-26.594 L300.006,-26.594 C297.787,-26.594 295.787,-27.406 294.006,-29.188 C291.787,-30.812 290.600,-34.188 290.194,-39.406 C290.194,-40.812 290.787,-41.594 292.412,-41.594 C293.787,-41.594 294.600,-40.812 294.600,-39.406 C294.600,-34.000 296.600,-31.188 300.412,-30.812 C301.194,-30.812 301.600,-30.406 301.787,-30.000 C302.194,-29.594 302.412,-29.000 302.412,-28.406 C302.194,-27.188 301.412,-26.594 300.194,-26.594 Z M301.412,-38.406 L301.412,-96.406 C312.194,-95.812 322.006,-85.188 322.006,-67.406 C322.006,-49.188 311.412,-38.812 301.412,-38.406 Z M335.600,-108.594 C333.600,-107.594 332.194,-107.812 331.194,-109.188 C326.600,-113.594 322.006,-117.000 315.600,-118.406 C314.006,-118.594 312.600,-119.812 313.006,-121.406 C313.006,-123.000 313.787,-124.000 315.600,-124.406 C317.412,-124.812 319.787,-124.406 323.006,-123.188 C326.006,-121.812 328.787,-120.188 331.412,-118.406 C334.412,-116.000 336.006,-114.000 336.412,-112.406 C337.194,-110.812 336.787,-109.594 335.412,-108.594 L335.600,-108.594 Z M400.387,-134.812 L383.606,-134.812 L380.794,-134.812 C369.606,-134.812 362.200,-127.000 362.200,-114.812 L362.200,-20.000 C362.200,-7.594 369.606,-0.000 380.794,-0.000 L383.606,-0.000 L401.200,-0.000 C436.012,-0.000 460.794,-22.188 460.794,-67.406 C460.794,-112.406 434.794,-134.812 400.387,-134.812 Z M400.794,-26.594 L400.606,-26.594 C398.387,-26.594 396.387,-27.406 394.606,-29.188 C392.387,-30.812 391.200,-34.188 390.794,-39.406 C390.794,-40.812 391.387,-41.594 393.012,-41.594 C394.387,-41.594 395.200,-40.812 395.200,-39.406 C395.200,-34.000 397.200,-31.188 401.012,-30.812 C401.794,-30.812 402.200,-30.406 402.387,-30.000 C402.794,-29.594 403.012,-29.000 403.012,-28.406 C402.794,-27.188 402.012,-26.594 400.794,-26.594 Z M402.012,-38.406 L402.012,-96.406 C412.794,-95.812 422.606,-85.188 422.606,-67.406 C422.606,-49.188 412.012,-38.812 402.012,-38.406 Z M436.200,-108.594 C434.200,-107.594 432.794,-107.812 431.794,-109.188 C427.200,-113.594 422.606,-117.000 416.200,-118.406 C414.606,-118.594 413.200,-119.812 413.606,-121.406 C413.606,-123.000 414.387,-124.000 416.200,-124.406 C418.012,-124.812 420.387,-124.406 423.606,-123.188 C426.606,-121.812 429.387,-120.188 432.012,-118.406 C435.012,-116.000 436.606,-114.000 437.012,-112.406 C437.794,-110.812 437.387,-109.594 436.012,-108.594 L436.200,-108.594 Z M498.206,-129.812 C493.987,-133.812 488.987,-136.000 483.206,-136.000 C477.612,-136.000 472.612,-133.812 468.612,-129.812 C464.612,-125.812 462.612,-120.812 462.612,-115.188 L462.612,-20.594 C462.612,-14.812 464.612,-10.000 468.612,-6.188 C472.612,-2.188 477.612,-0.188 483.206,-0.000 C488.987,-0.000 493.800,-2.000 497.800,-6.188 C501.987,-10.188 503.987,-15.000 503.987,-20.594 L503.987,-115.188 C503.987,-120.812 501.987,-125.812 497.987,-129.812 L498.206,-129.812 Z M493.394,-114.000 C490.987,-113.594 490.612,-115.188 490.206,-116.594 C489.987,-117.812 489.612,-121.406 483.987,-123.000 C480.612,-124.188 481.800,-127.812 484.206,-128.188 C488.800,-128.594 492.206,-125.188 493.206,-124.000 C494.800,-122.000 495.800,-120.000 496.206,-117.188 C496.206,-116.406 495.800,-114.188 493.394,-114.000 L493.394,-114.000 Z M596.212,-136.406 L592.994,-136.406 C581.212,-136.406 573.806,-127.812 573.806,-114.812 L573.806,-86.000 L545.994,-127.188 C542.212,-132.406 535.400,-136.406 528.806,-136.406 L525.806,-136.406 C513.994,-136.406 506.400,-127.812 506.400,-114.812 L506.400,-21.594 C506.400,-8.406 513.994,-0.000 525.806,-0.000 L528.806,-0.000 C540.400,-0.000 548.212,-8.406 548.212,-21.594 L547.994,-50.406 L577.400,-8.000 C580.806,-2.594 586.212,-0.000 592.806,-0.000 L595.806,-0.000 C607.587,-0.000 615.212,-8.406 615.212,-21.594 L615.212,-114.812 C615.212,-127.812 607.587,-136.406 595.806,-136.406 L596.212,-136.406 Z M525.587,-11.188 C524.806,-10.188 523.587,-9.812 522.212,-9.812 C519.400,-9.812 517.806,-11.188 517.400,-14.000 C517.400,-15.594 517.994,-16.812 518.806,-17.812 C519.994,-18.594 521.212,-19.000 522.400,-19.000 C523.587,-19.000 524.806,-18.406 525.587,-17.594 C526.587,-16.812 526.994,-15.594 526.994,-14.188 C526.994,-13.000 526.587,-12.000 525.587,-11.188 L525.587,-11.188 Z M607.806,-113.188 C607.806,-111.000 606.400,-109.594 604.400,-109.594 C602.587,-109.594 601.587,-110.812 601.587,-113.188 C601.587,-115.594 601.587,-117.406 599.994,-119.594 C599.212,-121.000 597.212,-122.000 593.994,-122.406 C591.212,-122.812 590.587,-125.000 590.994,-126.594 C591.806,-128.594 593.806,-128.594 594.994,-128.594 C597.994,-128.594 601.994,-127.594 604.806,-124.406 C607.994,-120.594 607.806,-116.812 607.806,-113.000 L607.806,-113.188 Z M729.006,-54.594 C728.600,-60.188 726.787,-65.000 723.194,-68.594 C719.412,-72.188 714.787,-74.188 709.412,-74.188 C704.194,-74.188 699.600,-72.188 695.600,-68.406 C692.006,-64.406 690.006,-59.812 690.006,-54.594 L690.006,-43.188 L689.006,-42.594 C688.787,-42.188 684.194,-39.000 677.600,-39.000 C668.787,-39.000 662.787,-43.188 659.412,-52.000 C657.787,-56.406 656.787,-61.594 656.787,-67.812 C656.787,-75.812 658.006,-82.406 660.600,-87.594 C662.194,-91.188 665.194,-94.188 669.412,-96.812 L669.600,-96.812 C671.787,-98.000 674.412,-98.594 677.194,-98.594 C681.787,-98.594 685.787,-97.188 689.194,-94.812 C690.412,-93.594 692.600,-92.406 695.412,-91.000 C697.787,-89.812 700.194,-89.188 702.600,-89.188 C708.006,-89.188 712.787,-91.188 717.006,-95.406 C720.600,-99.406 722.412,-103.812 722.412,-109.000 C722.412,-114.188 720.194,-119.000 716.194,-123.000 C707.194,-131.406 694.006,-136.406 676.787,-137.594 L676.006,-137.594 C666.787,-137.594 658.412,-135.406 650.600,-131.000 C630.194,-119.406 619.412,-100.188 617.787,-73.188 L617.600,-67.594 C617.600,-56.406 619.412,-46.406 623.006,-37.406 C628.787,-23.188 638.006,-13.000 650.412,-6.406 C659.194,-2.000 668.412,-0.000 678.006,-0.000 C681.600,-0.000 685.412,-0.406 689.194,-1.000 C695.412,-2.000 700.787,-3.594 705.600,-5.812 C710.412,-7.812 715.006,-10.188 719.600,-13.188 C725.600,-17.000 728.787,-22.594 729.194,-30.188 L729.006,-54.594 Z M690.006,-128.188 C691.600,-128.406 694.006,-127.812 697.600,-126.406 C700.600,-124.812 703.194,-123.188 705.412,-121.406 C708.006,-119.188 709.412,-117.406 709.600,-115.812 C710.006,-114.188 709.412,-113.000 708.006,-112.406 C706.412,-111.594 705.194,-112.000 704.194,-113.406 C700.194,-117.812 695.194,-120.594 689.006,-122.188 C687.787,-122.594 687.006,-123.188 687.006,-123.812 C686.600,-126.188 687.600,-127.594 690.006,-128.188 L690.006,-128.188 Z M704.194,-55.000 C701.412,-55.000 699.600,-57.000 699.600,-59.812 C699.600,-62.406 701.600,-64.594 704.412,-64.594 C707.006,-64.188 709.194,-62.406 709.194,-59.594 C708.787,-56.812 707.006,-55.000 704.194,-55.000 Z" fill="#526047"/>
</svg>
