<svg xmlns="http://www.w3.org/2000/svg"
  viewBox="-13.225 -136.750 895.594 157.025"
  role="img"
  aria-labelledby="title desc">
  <title id="title">WEDDING</title>
  <desc id="desc">太く丸みのあるオリジナルのWEDDINGロゴ</desc>

  <path
    d="M4.775,-116.650 L33.600,-116.650 L53.750,-31.875 L73.750,-116.650 L102.725,-116.650 L122.725,-31.875 L142.900,-116.650 L171.475,-116.650 L143.975,-0.000 L109.300,-0.000 L88.125,-88.675 L67.200,-0.000 L32.500,-0.000 L4.775,-116.650 Z M191.184,-116.650 L272.334,-116.650 L272.334,-93.900 L221.259,-93.900 L221.259,-72.200 L269.309,-72.200 L269.309,-49.450 L221.259,-49.450 L221.259,-22.725 L274.059,-22.725 L274.059,-0.000 L191.184,-0.000 L191.184,-116.650 Z M330.556,-93.900 L330.556,-22.725 L341.331,-22.725 Q359.756,-22.725 369.481,-31.875 Q379.231,-41.025 379.231,-58.450 Q379.231,-75.775 369.531,-84.825 Q359.856,-93.900 341.331,-93.900 L330.556,-93.900 Z M300.481,-116.650 L332.181,-116.650 Q358.756,-116.650 371.756,-112.850 Q384.756,-109.075 394.056,-100.000 Q402.256,-92.100 406.231,-81.775 Q410.231,-71.475 410.231,-58.450 Q410.231,-45.225 406.231,-34.875 Q402.256,-24.525 394.056,-16.650 Q384.681,-7.575 371.556,-3.775 Q358.431,-0.000 332.181,-0.000 L300.481,-0.000 L300.481,-116.650 Z M463.369,-93.900 L463.369,-22.725 L474.144,-22.725 Q492.569,-22.725 502.294,-31.875 Q512.044,-41.025 512.044,-58.450 Q512.044,-75.775 502.344,-84.825 Q492.669,-93.900 474.144,-93.900 L463.369,-93.900 Z M433.294,-116.650 L464.994,-116.650 Q491.569,-116.650 504.569,-112.850 Q517.569,-109.075 526.869,-100.000 Q535.069,-92.100 539.044,-81.775 Q543.044,-71.475 543.044,-58.450 Q543.044,-45.225 539.044,-34.875 Q535.069,-24.525 526.869,-16.650 Q517.494,-7.575 504.369,-3.775 Q491.244,-0.000 464.994,-0.000 L433.294,-0.000 L433.294,-116.650 Z M566.106,-116.650 L596.181,-116.650 L596.181,-0.000 L566.106,-0.000 L566.106,-116.650 Z M625.638,-116.650 L659.213,-116.650 L701.638,-36.650 L701.638,-116.650 L730.163,-116.650 L730.163,-0.000 L696.562,-0.000 L654.138,-80.000 L654.138,-0.000 L625.638,-0.000 L625.638,-116.650 Z M864.369,-8.675 Q853.119,-3.200 841.019,-0.450 Q828.919,2.275 816.019,2.275 Q786.869,2.275 769.844,-14.025 Q752.819,-30.325 752.819,-58.200 Q752.819,-86.400 770.144,-102.575 Q787.494,-118.750 817.669,-118.750 Q829.294,-118.750 839.944,-116.550 Q850.619,-114.375 860.069,-110.075 L860.069,-85.950 Q850.319,-91.475 840.669,-94.200 Q831.019,-96.950 821.319,-96.950 Q803.369,-96.950 793.644,-86.900 Q783.919,-76.875 783.919,-58.200 Q783.919,-39.700 793.294,-29.600 Q802.669,-19.525 819.919,-19.525 Q824.619,-19.525 828.644,-20.100 Q832.669,-20.700 835.869,-21.950 L835.869,-44.600 L817.494,-44.600 L817.494,-64.775 L864.369,-64.775 L864.369,-8.675 Z"
    fill="#526047"
    stroke="#526047"
    stroke-width="10"
    stroke-linejoin="round"
    stroke-linecap="round"
    paint-order="stroke fill"
  />
</svg>
